<?xml version="1.0" standalone="no"?>
<!DOCTYPE svg PUBLIC "-//W3C//DTD SVG 20010904//EN"
 "http://www.w3.org/TR/2001/REC-SVG-20010904/DTD/svg10.dtd">
<svg version="1.0" xmlns="http://www.w3.org/2000/svg"
 width="110.000000pt" height="99.000000pt" viewBox="0 0 110.000000 99.000000"
 preserveAspectRatio="xMidYMid meet">

<g transform="translate(0.000000,99.000000) scale(0.100000,-0.100000)"
fill="#000000" stroke="none">
<path d="M684 966 c-27 -13 -66 -37 -86 -55 -20 -17 -38 -31 -40 -31 -3 0 -18
11 -34 25 -115 100 -297 97 -403 -5 -63 -61 -91 -129 -91 -217 0 -40 4 -81 9
-91 5 -9 19 -39 32 -67 19 -40 30 -51 52 -53 23 -3 27 0 27 23 0 15 -8 39 -18
53 -62 92 -46 229 35 303 47 44 87 59 158 59 78 0 144 -29 193 -84 17 -20 36
-36 42 -36 5 0 31 21 57 46 80 77 154 99 245 74 79 -22 143 -111 147 -204 1
-28 4 -53 6 -57 8 -12 -32 -118 -61 -162 -27 -42 -298 -314 -362 -364 -28 -22
-37 -25 -53 -15 -57 36 -85 -5 -37 -55 54 -56 55 -55 242 120 204 191 269 265
314 357 28 59 41 182 23 218 -5 9 -19 38 -32 65 -53 112 -134 168 -249 174
-52 2 -75 -2 -116 -21z"/>
<path d="M426 714 c-3 -9 -6 -46 -6 -83 0 -39 -5 -72 -12 -79 -7 -7 -45 -12
-99 -12 l-86 0 -7 -61 c-10 -83 -4 -88 107 -91 l92 -3 3 -89 c2 -50 8 -96 14
-103 6 -8 34 -13 74 -13 74 0 72 -3 76 125 l3 80 80 3 c43 2 85 8 92 14 10 8
13 30 11 72 l-3 61 -70 3 c-120 4 -115 0 -115 96 0 96 0 96 -90 96 -44 0 -59
-4 -64 -16z"/>
</g>
</svg>
